# xmcd
#
# Track frame offsets:
#	150
#	15113
#	37617
#	53283
#	73177
#	92787
#	110471
#	131482
#	147760
#	168948
#	181266
#
# Disc length: 2571 seconds
#
# Revision: 1
# Processed by: cddbd v1.5.2PL0 Copyright (c) Steve Scherf et al.
# Submitted via: EZCDAudioConverter 7.1.2.1
#
DISCID=7c0a090b
DTITLE=The Dardanelles - The Eastern Light
DYEAR=2011
DGENRE=Country
TTITLE0=McCarthy's
TTITLE1=Polly Moore
TTITLE2=Bad Boy
TTITLE3=The Eastern Light
TTITLE4=Jim Rumbolt's/Gillis' Favourite
TTITLE5=Josephine's Jigs
TTITLE6=Pad's Song
TTITLE7=Long Point Reels
TTITLE8=The Old Smythe
TTITLE9=River of Ponds/Annie Annie
TTITLE10=Big Bow Wow
EXTD=
EXTT0=
EXTT1=
EXTT2=
EXTT3=
EXTT4=
EXTT5=
EXTT6=
EXTT7=
EXTT8=
EXTT9=
EXTT10=
PLAYORDER=
